<svg viewBox="0 0 24 24" width="24" height="24" style="width: 24px; height: 24px;"><path d="M924.505 147.101H97.82c-17.558 0-31.795 14.242-31.795 31.795V687.63c0 17.558 14.238 31.792 31.795 31.792h241.198l149.665 149.662c6.21 6.212 14.343 9.316 22.479 9.316s16.27-3.103 22.48-9.316l149.665-149.66h241.198c17.558 0 31.795-14.236 31.795-31.793V178.897c0-17.554-14.238-31.796-31.795-31.796z m-31.796 508.73h-222.57a31.797 31.797 0 0 0-22.478 9.316l-136.5 136.495-136.498-136.495a31.801 31.801 0 0 0-22.48-9.316H129.614V210.696h763.094V655.83zM225 433.265a63.591 63.591 0 1 0 127.183 0 63.591 63.591 0 1 0-127.183 0zM447.571 433.265a63.591 63.591 0 1 0 127.182 0 63.591 63.591 0 1 0-127.182 0zM670.14 433.265a63.591 63.591 0 1 0 127.182 0 63.591 63.591 0 1 0-127.182 0z" p-id="12201"></path></svg>
