<svg viewBox="0 0 1024 1024" version="1.1" xmlns="http://www.w3.org/2000/svg" p-id="1503" xmlns:xlink="http://www.w3.org/1999/xlink" width="200" height="200"><path d="M1016.5248 493.8752a25.6 25.6 0 0 0-36.1984 0l-183.6032 183.6032a76.8512 76.8512 0 0 1-108.5952 0L448.9216 438.272c-14.4384-14.4384-22.3744-33.6896-22.3744-54.3232s7.936-39.8848 22.3744-54.3232l183.6032-183.6032a25.6 25.6 0 0 0-36.1984-36.1984L412.7232 293.4272a127.0272 127.0272 0 0 0-37.376 90.5216c0 14.592 2.4576 28.8256 7.0656 42.1888L7.5264 801.024a25.6 25.6 0 0 0-7.4752 18.1248v76.8a25.6 25.6 0 0 0 25.6 25.6h486.4c6.8096 0 13.312-2.7136 18.1248-7.4752l170.0864-170.0864a128 128 0 0 0 42.1888 7.0656c34.2528 0 66.4064-13.2608 90.5216-37.376l183.6032-183.6032a25.6 25.6 0 0 0 0-36.1984zM501.4016 870.4H51.2v-40.6016l358.5024-358.5024 3.0208 3.1744 239.2064 239.2064 3.1744 3.0208L501.4016 870.4z" p-id="1504"></path></svg>
